<?xml version="1.0" encoding="UTF-8"?><svg xmlns="http://www.w3.org/2000/svg" width="1024" height="1024" viewBox="0 0 1024 1024"><defs>
    <radialGradient id="bg" cx="50%" cy="42%" r="78%">
      <stop offset="0%" stop-color="#3a2f80"/><stop offset="100%" stop-color="#14122e"/>
    </radialGradient>
    <radialGradient id="iris" cx="50%" cy="45%" r="60%">
      <stop offset="0%" stop-color="#ffe07a"/><stop offset="55%" stop-color="#f2c14e"/>
      <stop offset="100%" stop-color="#c87b22"/>
    </radialGradient>
    <linearGradient id="pageL" x1="0" y1="0" x2="1" y2="0.3">
      <stop offset="0%" stop-color="#e7c878"/><stop offset="100%" stop-color="#fff6df"/>
    </linearGradient>
    <linearGradient id="pageR" x1="1" y1="0" x2="0" y2="0.3">
      <stop offset="0%" stop-color="#e7c878"/><stop offset="100%" stop-color="#fff6df"/>
    </linearGradient>
    <radialGradient id="glow" cx="50%" cy="50%" r="50%">
      <stop offset="0%" stop-color="#ffe07a" stop-opacity="0.55"/>
      <stop offset="100%" stop-color="#ffe07a" stop-opacity="0"/>
    </radialGradient></defs>
  <rect width="1024" height="1024" fill="url(#bg)"/>
  <g fill="#f4e9cf" opacity="0.5">
    <circle cx="210" cy="190" r="4"/><circle cx="820" cy="230" r="5"/>
    <circle cx="160" cy="760" r="4"/><circle cx="860" cy="800" r="4"/>
    <circle cx="300" cy="120" r="3"/><circle cx="700" cy="140" r="3"/>
  </g>
  <circle cx="512" cy="438" r="210" fill="url(#glow)"/>
  <!-- upper lid -->
  <path d="M168,452 C 330,292 694,292 856,452 C 700,372 324,372 168,452 Z"
        fill="url(#pageL)" stroke="#c87b22" stroke-width="6" stroke-linejoin="round"/>
  <path d="M210,420 C 350,318 674,318 814,420"
        fill="none" stroke="#f2c14e" stroke-width="7" stroke-linecap="round" opacity="0.65"/>
  <!-- iris -->
  <circle cx="512" cy="446" r="126" fill="url(#iris)"/>
  <circle cx="512" cy="446" r="55" fill="#1b1740"/>
  <circle cx="490" cy="424" r="18" fill="#fff6df" opacity="0.92"/>
  <g stroke="#c87b22" stroke-width="6" opacity="0.5" stroke-linecap="round">
    <line x1="512" y1="338" x2="512" y2="372"/><line x1="386" y1="446" x2="420" y2="446"/>
    <line x1="604" y1="446" x2="638" y2="446"/><line x1="426" y1="368" x2="448" y2="390"/>
    <line x1="598" y1="368" x2="576" y2="390"/>
  </g>
  <!-- open book -->
  <path d="M512,556 C 430,536 280,532 162,516 L 150,552 C 270,616 420,668 512,694 Z"
        fill="url(#pageL)" stroke="#c87b22" stroke-width="5.5" stroke-linejoin="round"/>
  <path d="M512,556 C 594,536 744,532 862,516 L 874,552 C 754,616 604,668 512,694 Z"
        fill="url(#pageR)" stroke="#c87b22" stroke-width="5.5" stroke-linejoin="round"/>
  <path d="M512,556 L512,694" stroke="#c87b22" stroke-width="8" stroke-linecap="round"/>
  <g stroke="#c87b22" stroke-width="4.5" opacity="0.55" stroke-linecap="round" fill="none">
    <path d="M232,558 C 330,602 430,628 498,640"/><path d="M210,592 C 318,640 426,664 498,674"/>
    <path d="M792,558 C 694,602 594,628 526,640"/><path d="M814,592 C 706,640 598,664 526,674"/>
  </g></svg>